<?xml version="1.0" encoding="UTF-8" standalone="no"?>
<!-- Created with Inkscape (http://www.inkscape.org/) -->

<svg
   width="160.48749mm"
   height="22.328871mm"
   viewBox="0 0 160.48749 22.328871"
   version="1.1"
   id="svg1"
   xml:space="preserve"
   xmlns="http://www.w3.org/2000/svg"
   xmlns:svg="http://www.w3.org/2000/svg"><defs
     id="defs1" /><g
     id="g3"><g
       id="g2"
       transform="matrix(0.04340964,0,0,0.04340964,-2.4797635,-1.8749104)"
       style="fill:#b3b3b3;stroke:#b3b3b3"><ellipse
         style="fill:#b3b3b3;stroke:#b3b3b3;stroke-width:0.629102"
         id="path25-93"
         cx="325.09891"
         cy="151.44785"
         rx="10.858534"
         ry="7.9564791" /><g
         id="g1"
         style="fill:#b3b3b3;stroke:#b3b3b3"><path
           style="fill:#b3b3b3;fill-opacity:1;stroke:#b3b3b3"
           d="m 161.20601,525.13026 c -13.27672,-3.69037 -25.63005,-11.91728 -32.12576,-21.39471 -3.17701,-4.63535 -9.20972,-10.4899 -13.87158,-13.46191 -9.07438,-5.78508 -17.214747,-14.52784 -15.398387,-16.53787 0.637957,-0.70598 0.332127,-0.81044 -0.67962,-0.23215 -1.01175,0.5783 -2.22901,0.0365 -2.70503,-1.20397 -0.47602,-1.24048 -4.75415,-3.38588 -9.50695,-4.76756 -16.52265,-4.80327 -27.00396,-15.87156 -29.43673,-31.08529 -0.83383,-5.21445 -0.33828,-7.07289 2.88525,-10.82046 3.54097,-4.11663 4.46092,-4.40266 10.20033,-3.17148 3.4696,0.74427 7.00131,1.39088 7.84826,1.43691 0.86233,0.0469 1.67502,-6.76636 1.84699,-15.48428 0.63741,-32.31452 8.83289,-64.75801 31.571507,-124.98223 20.1065,-53.25292 24.20866,-66.70439 30.12599,-98.78671 2.60715,-14.13534 6.33102,-30.21949 8.27526,-35.74256 3.535,-10.04194 3.535,-10.04194 -0.59533,-14.45659 -6.4406,-6.88394 -9.31595,-13.97235 -9.31595,-22.966 0,-11.11221 3.80237,-18.61254 11.40107,-22.48911 8.83191,-4.5057 17.15827,-3.99194 28.03562,1.72988 8.08518,4.25305 9.8935,4.64779 14.43116,3.15023 4.92477,-1.62532 5.22172,-2.18239 5.85888,-10.99096 0.4426,-6.11884 1.86363,-10.95351 4.17264,-14.19621 4.62274,-6.49204 13.63072,-10.71082 20.22742,-9.47327 10.4132,1.95353 21.88822,15.49121 21.88822,25.82267 0,2.81984 1.65569,4.22847 7.62987,6.49139 20.36776,7.71497 35.08925,23.61445 42.71833,46.13661 0.72061,2.12733 2.82013,2.83996 8.63247,2.93006 8.00628,0.12412 23.93001,2.50201 19.72744,2.9459 -3.37712,0.35671 4.22421,6.57277 8.03754,6.57277 6.90175,0 6.73014,15.23289 -0.38001,33.73204 -7.61898,19.82303 -32.61261,44.62788 -57.45245,57.01854 -4.85903,2.42378 -9.04238,4.58796 -9.29636,4.80927 -0.25397,0.22131 2.55331,12.44998 6.23841,27.17481 6.70019,26.77242 6.70019,26.77242 17.65203,33.85713 15.01171,9.71103 19.7479,17.13442 20.41762,32.00215 0.40034,8.88754 -0.16062,12.61232 -2.55413,16.95922 -3.77163,6.84976 -9.49753,11.2764 -16.41653,12.69148 -5.24933,1.07361 -5.24933,1.07361 -5.86264,17.90966 -1.21448,33.33904 -6.40359,58.84947 -16.50009,81.11682 -4.69774,10.36063 -4.69774,10.36063 2.25629,13.43673 9.79555,4.33304 13.70312,8.7265 13.70312,15.40705 0,5.07757 -0.68932,5.91057 -7.62986,9.22016 -6.77235,3.22939 -10.10657,3.6401 -29.66637,3.6543 -22.0365,0.016 -22.0365,0.016 -30.08181,-8.41702 -4.42492,-4.63816 -9.10314,-8.43301 -10.39604,-8.43301 -4.04697,0 -4.0805,-2.2962 -0.19004,-13.01431 2.07654,-5.72079 5.03954,-16.76615 6.58445,-24.54523 2.40988,-12.13451 2.52952,-15.66019 0.84212,-24.81803 -3.88566,-21.08821 -15.18455,-35.07035 -34.1869,-42.30557 -11.71505,-4.46056 -25.99412,-3.53057 -39.41658,2.56717 -14.22738,6.46341 -15.83366,9.54314 -2.52837,4.84767 21.44168,-7.56684 40.12491,-4.30174 54.10346,9.45517 11.87094,11.68273 14.50541,20.01587 13.48109,42.64237 -0.58481,12.91823 -1.8029,19.95636 -5.01666,28.98633 -2.33438,6.55909 -4.24433,12.76897 -4.24433,13.79973 0,1.03077 3.43344,3.74789 7.62987,6.03804 4.19643,2.29016 10.14788,6.76989 13.22545,9.95496 5.33418,5.52052 5.48425,5.9856 3.21257,9.95586 -3.71947,6.50059 -15.7698,10.3899 -34.50876,11.13788 -11.23132,0.44831 -18.72024,-0.0975 -24.89746,-1.81447 z m 41.78446,-16.7855 c -0.98365,-1.83796 -2.47236,-2.91907 -3.30825,-2.40246 -0.88324,0.54587 -0.37873,3.0877 1.20451,6.06857 2.03415,3.82986 2.87224,4.43848 3.30825,2.40246 0.32117,-1.49975 -0.22086,-4.23061 -1.20451,-6.06857 z m 9.55271,-0.9195 c -1.06458,-1.28275 -3.20951,-2.33227 -4.7665,-2.33227 -2.38125,0 -2.15866,0.73931 1.4014,4.6546 3.03062,3.33302 4.38397,3.99521 4.7665,2.33226 0.29382,-1.27728 -0.33681,-3.37185 -1.4014,-4.65459 z m 59.4967,-10.46931 c 0,-3.26677 -3.33802,-7.92584 -5.67852,-7.92584 -1.29411,0 -2.35292,0.72283 -2.35292,1.60629 0,0.88346 0.63852,1.60629 1.41894,1.60629 0.78042,0 1.797,1.44566 2.25906,3.21257 0.86938,3.32452 4.35344,4.52552 4.35344,1.50069 z m 6.42515,-2.30383 c -1.6116,-1.94186 -1.57184,-2.43053 0.20489,-2.51815 1.2125,-0.0598 0.57125,-0.89617 -1.42499,-1.85861 -4.87733,-2.3515 -6.40313,-0.41264 -2.80453,3.56377 3.35249,3.70445 7.04305,4.44996 4.02463,0.81299 z M 233.1297,455.79611 c 20.3817,-13.86721 34.85041,-42.2113 38.17721,-74.78886 0.60897,-5.96335 0.62571,-10.84245 0.0372,-10.84245 -0.58853,0 -3.09994,1.0497 -5.58092,2.33267 -13.15894,6.80475 -36.2578,12.01996 -53.55753,12.09211 -7.60827,0.0317 -7.62987,0.0474 -7.62987,5.52342 0,3.32441 2.67702,10.64124 6.78348,18.54062 6.59575,12.68786 6.78468,13.48056 6.82673,28.64201 0.0238,8.57615 -0.57788,18.04039 -1.33703,21.03163 -1.36467,5.37718 -1.32836,5.42619 3.21258,4.33694 2.52606,-0.60594 8.40674,-3.69658 13.06816,-6.86809 z m -15.70361,-79.02377 c 0,-0.78315 -3.43344,-1.91859 -7.62987,-2.52322 -20.70018,-2.98248 -43.05145,-20.45136 -53.52375,-41.83208 -4.86181,-9.92609 -5.56753,-10.71981 -6.02091,-6.77166 -0.31752,2.765 1.78751,9.12942 5.51402,16.67129 7.51722,15.21367 21.02645,27.22727 36.42827,32.39521 10.1587,3.40866 25.23224,4.63956 25.23224,2.06046 z m 59.43265,-48.23962 c 11.70569,-1.53323 7.5951,-2.88086 -12.04716,-3.94958 -25.05354,-1.36314 -39.32336,-6.83877 -53.4169,-20.49718 -7.00263,-6.78643 -14.85034,-19.79854 -14.85034,-24.62303 0,-1.35455 -0.81683,-2.46283 -1.81519,-2.46283 -1.18802,0 -1.54681,2.38099 -1.03844,6.89125 3.35327,29.75012 41.31029,50.12398 83.16803,44.64137 z m -8.88731,-8.07752 c 1.11683,-1.80707 -9.0384,-42.93964 -13.63367,-55.2216 -5.73989,-15.34124 -15.29786,-20.12042 -27.97037,-13.98577 -15.6208,7.5619 -24.63719,28.54686 -17.87987,41.61406 5.25428,10.16067 20.01947,20.28014 36.29381,24.87433 7.65401,2.16071 11.08372,2.83516 20.33703,3.99927 1.05218,0.13237 2.33606,-0.44376 2.85307,-1.28029 z m 22.47155,-98.21902 c 3.83647,-0.96603 9.39706,-3.82798 12.35689,-6.35987 5.38149,-4.60345 5.38149,-4.60345 -3.61643,-4.66873 -7.76547,-0.0563 -9.6906,-0.72724 -14.05502,-4.89812 -2.78141,-2.65806 -5.0571,-5.32319 -5.0571,-5.92253 0,-0.59933 1.98778,0.76244 4.41729,3.02615 2.42951,2.26371 5.42145,3.75083 6.64874,3.30471 1.26946,-0.46145 1.78786,-0.0934 1.2025,0.85375 -0.59725,0.96637 0.15135,1.4279 1.78427,1.10007 1.54727,-0.31065 5.56696,-1.00691 8.93264,-1.54726 10.69147,-1.71647 22.25744,-14.47189 28.42661,-31.35002 2.84492,-7.78338 2.47037,-9.84049 -1.13524,-6.23489 -4.62074,4.62075 -22.46542,-0.82557 -20.5357,-6.26763 0.40786,-1.15021 0.027,-1.64968 -0.84633,-1.10992 -2.58723,1.59899 -1.83385,-9.38626 0.91263,-13.30741 2.49899,-3.56781 2.49477,-3.56999 -6.94026,-3.56999 -19.23914,0 -35.41559,13.46697 -42.16911,35.10596 -3.8289,12.2682 -4.01271,19.23889 -0.71538,27.1305 3.15909,7.56077 6.74997,11.5531 12.78904,14.21881 5.97852,2.63898 8.77754,2.71793 17.59996,0.49642 z m -60.39954,-10.17027 c 5.11201,-2.64353 8.26439,-8.59764 8.26439,-15.60952 0,-19.83352 -27.5227,-24.20719 -33.74217,-5.36201 -5.2251,15.83222 10.45584,28.73967 25.47778,20.97153 z m 27.37489,-59.55431 c 2.07458,-4.68994 5.20437,-8.41331 8.90975,-10.59954 6.39851,-3.77522 7.3601,-6.26529 2.41946,-6.26529 -8.85131,0 -20.09922,13.06396 -18.03714,20.94937 1.29006,4.9332 3.24571,3.74238 6.70793,-4.08454 z M 183.0582,126.55485 c 5.23523,-3.43026 4.77955,-8.00313 -1.67375,-16.79631 -5.7483,-7.83256 -11.39429,-10.26749 -17.99161,-7.75919 -7.89811,3.00285 -8.8987,15.46413 -1.76067,21.92713 8.15997,7.38831 13.21504,8.00842 21.42603,2.62837 z m 49.49625,-40.07173 c 3.4708,-1.33187 3.18863,-3.75037 -0.95177,-8.15763 -6.32848,-6.73636 -18.99546,-2.78862 -18.99546,5.92006 0,2.81729 1.07086,3.21257 8.70321,3.21257 4.78677,0 9.84658,-0.43875 11.24402,-0.975 z m 253.12172,439.23889 c -12.9694,-1.31156 -20.9979,-3.70009 -25.4677,-7.57676 -3.432,-2.97654 -4.7259,-8.2334 -2.0265,-8.2334 0.7804,0 1.7612,-1.30905 2.1796,-2.90901 0.6509,-2.48882 7.0714,-7.45508 18.0935,-13.99525 2.5865,-1.5347 2.4959,-2.51712 -1.3562,-14.71127 -8.8278,-27.94489 -9.4014,-44.18236 -2.1179,-59.95531 12.4722,-27.00974 37.2573,-34.06832 70.931,-20.20056 5.8056,2.3909 6.1154,2.39626 3.2126,0.0556 -1.7669,-1.42475 -7.5496,-4.87355 -12.8503,-7.66399 -8.7387,-4.60024 -10.9864,-5.07456 -24.0943,-5.08442 -15.8438,-0.0119 -20.1483,1.50302 -32.355,11.38722 -18.9506,15.34505 -22.6414,41.04078 -11.0504,76.93552 5.187,16.06288 5.187,16.06288 -2.6092,23.50703 -4.2878,4.09428 -7.7961,8.16625 -7.7961,9.04881 0,2.51792 -6.0812,3.53997 -21.2042,3.5637 -17.3032,0.0272 -29.0882,-2.39098 -34.5504,-7.08933 -3.8031,-3.27134 -4.0166,-4.06322 -2.369,-8.78936 2.1444,-6.15135 6.8948,-10.55022 15.1554,-14.03377 3.313,-1.3971 6.0236,-3.20856 6.0236,-4.02546 0,-0.8169 -1.7734,-4.98489 -3.9409,-9.26219 -8.9648,-17.69124 -15.4527,-46.79265 -17.8152,-79.9098 -1.0491,-14.70741 -1.0491,-14.70741 -7.9313,-16.44035 -7.5044,-1.88963 -16.1078,-10.13285 -17.8594,-17.11162 -0.556,-2.21516 -0.7138,-8.69249 -0.3508,-14.39409 0.9571,-15.03059 6.9111,-22.6563 27.5852,-35.3301 1.7294,-1.06017 4.1924,-8.70572 7.2445,-22.48803 7.5703,-34.18529 8.0317,-30.00262 -3.8823,-35.19293 -24.2345,-10.55768 -47.9848,-35.19546 -56.2458,-58.34747 -2.5823,-7.23708 -2.9597,-23.4995 -0.6456,-27.82331 2.6916,-5.02934 10.0104,-7.76839 23.8387,-8.92163 13.0059,-1.08465 13.0059,-1.08465 18.8734,-12.9596 14.6983,-29.74704 49.5255,-42.87993 84.3875,-31.82142 9.0851,2.88187 9.0851,2.88187 12.8503,-1.1492 13.0095,-13.92817 35.1601,-12.06174 43.1692,3.63748 5.9134,11.59127 3.4866,23.8185 -6.9005,34.7672 -4.8847,5.14873 -4.8847,5.14873 -2.3274,12.04716 3.7377,10.08254 5.8788,19.02468 8.5143,35.55997 3.7501,23.52735 16.1137,62.04647 29.2824,91.23008 9.8833,21.90261 23.9702,64.29749 29.0144,87.31951 2.5831,11.78965 5.0121,33.78778 5.0121,45.39201 0,9.52535 0.1877,10.03748 3.107,8.47515 8.3779,-4.48372 16.1838,0.51307 16.1534,10.34019 -0.034,10.86942 -14.6037,28.21108 -26.9505,32.07724 -2.0209,0.63281 -5.3687,3.83444 -7.4394,7.11473 -4.4619,7.06804 -12.4213,14.27078 -20.5235,18.57239 -3.218,1.70851 -7.3056,5.68408 -9.0835,8.83458 -10.6067,18.79555 -34.3417,28.44057 -62.8848,25.55406 z M 478.50057,509.81 c 2.1642,-4.1852 2.1671,-4.71701 0.026,-4.71701 -3.0021,0 -7.9594,7.28188 -6.5309,9.59329 1.4461,2.33992 3.6139,0.71497 6.5053,-4.87628 z m -9.7678,-1.67564 c 4.3653,-6.59635 4.3653,-6.59635 -0.5897,-3.66939 -3.2355,1.91127 -4.9549,4.20029 -4.9549,6.59636 0,2.01816 0.2653,3.66939 0.5897,3.66939 0.3243,0 2.554,-2.96836 4.9549,-6.59636 z m -48.9713,-17.09639 c 0.1242,-4.38307 -11.4972,-1.27738 -13.3572,3.56953 -1.3434,3.50102 1.7049,3.03412 4.9522,-0.75852 3.9433,-4.60548 5.2948,-3.97572 4.3088,2.00785 -0.8603,5.22044 -0.8603,5.22044 1.5895,1.20472 1.3474,-2.20864 2.4754,-4.91926 2.5067,-6.02358 z m 39.4151,-51.40121 c 0,-16.13278 0.3369,-17.98765 5.1852,-28.22403 2.8542,-6.02604 5.7455,-10.61312 6.4252,-10.19352 0.6797,0.4196 1.4422,-2.37228 1.6945,-6.20417 0.5126,-7.78582 2.8753,-6.73052 -21.7421,-9.71118 -4.1964,-0.5081 -14.0551,-3.05791 -21.9083,-5.66625 -7.8532,-2.60834 -14.6204,-4.40052 -15.0383,-3.98262 -1.5734,1.57335 3.198,22.91868 7.7776,34.79382 2.618,6.78893 8.2988,17.38247 12.6239,23.54119 7.4757,10.64499 19.9082,22.81522 23.376,22.88291 0.9788,0.0191 1.6088,-6.74195 1.6063,-17.23615 z m 36.7715,-62.6087 c 9.7322,-3.78169 20.9528,-12.43358 27.2494,-21.01133 4.8221,-6.56901 12.2736,-24.27925 12.2736,-29.17103 0,-3.72676 -2.705,-1.2757 -4.7094,4.26718 -8.165,22.58012 -30.6632,41.38365 -54.9101,45.89283 -6.2307,1.15872 -8.8065,2.24618 -7.4719,3.15445 2.7874,1.89696 19.5178,-0.004 27.5684,-3.1321 z m -51.1681,-47.90708 c 10.1665,-2.6473 26.927,-10.54455 33.1401,-15.61506 2.0572,-1.6789 2.6561,-2.51661 1.331,-1.86158 -1.3252,0.65503 -0.52,-0.90861 1.7893,-3.47476 4.9901,-5.5452 7.8638,-13.41085 7.8073,-21.36987 -0.041,-5.78389 -0.041,-5.78389 -4.812,3.85384 -2.624,5.30075 -6.7715,11.80622 -9.2165,14.45659 -6.4739,7.01751 -19.1248,14.95975 -28.4244,17.84484 -6.5376,2.02823 -31.1212,4.86786 -46.3482,5.35364 -1.5982,0.051 -2.4591,0.81553 -1.9131,1.69899 1.6016,2.59136 35.785,1.94162 46.6465,-0.88663 z m -5.4541,-8.47877 c 14.7968,-4.10303 27.7071,-12.13031 33.951,-21.10991 10.2824,-14.78749 -9.0427,-44.99641 -28.7962,-45.01422 -5.5791,-0.005 -7.4459,0.88875 -11.4995,5.50549 -5.7961,6.60144 -13.7613,32.47 -17.2212,55.92902 -1.1252,7.62986 -1.1252,7.62986 5.9186,7.62986 3.8742,0 11.8155,-1.3231 17.6473,-2.94024 z m -26.0319,-93.17939 c 8.3856,-6.13552 10.5471,-10.95432 10.4384,-23.27081 -0.2401,-27.19843 -18.7225,-48.27422 -44.2077,-50.4108 -11.6161,-0.97386 -11.6161,-0.97386 -8.1492,2.49301 3.8229,3.82293 4.4614,9.82008 1.6201,15.21805 -2.3228,4.41284 -4.7894,6.10166 -7.4728,5.11636 -1.1503,-0.42233 -1.7005,-0.1355 -1.2228,0.6374 1.3583,2.19784 -5.6881,3.40015 -9.1304,1.5579 -4.8355,-2.58786 -5.1614,-0.53846 -1.369,8.60779 10.2016,24.60349 26.1518,34.01482 42.6562,25.169 6.3072,-3.38044 6.3072,-3.38044 3.8174,0.40157 -3.3128,5.03231 -12.4952,8.05893 -18.8876,6.22562 -4.473,-1.28286 -4.7839,-1.14131 -3.3554,1.5279 0.866,1.61796 5.3818,4.86327 10.0352,7.21181 9.5184,4.80381 18.2282,4.63644 25.2276,-0.4848 z m 55.3717,-9.14524 c 4.6444,-3.04313 8.0092,-12.91502 6.4794,-19.00994 -2.9774,-11.86291 -20.0939,-15.77011 -29.5206,-6.7387 -11.6061,11.11933 -2.0945,31.15401 13.8198,29.10925 2.7999,-0.35974 6.9495,-1.87202 9.2214,-3.36061 z m -33.8489,-52.14572 c -0.3367,-6.79725 -6.195,-12.67196 -13.88,-13.91907 -4.7954,-0.77819 -5.9373,-0.46383 -5.9373,1.63456 0,1.44946 2.4783,3.63352 5.6057,4.94024 3.6477,1.5241 6.5618,4.34732 8.3432,8.08292 3.2915,6.9024 6.2287,6.53271 5.8684,-0.73865 z m 73.4,-28.14285 c 11.3133,-5.85033 12.7346,-22.53095 2.2592,-26.5137 -5.3713,-2.04217 -10.5976,0.2335 -17.4389,7.59337 -6.8008,7.31619 -7.0547,9.92766 -1.5961,16.41484 4.6718,5.55216 9.4921,6.27207 16.7758,2.50549 z"
           id="path15" /><ellipse
           style="fill:#b3b3b3;stroke:#b3b3b3"
           id="path24"
           cx="163.61784"
           cy="542.83911"
           rx="56.363335"
           ry="14.227638" /><circle
           style="fill:#b3b3b3;stroke:#b3b3b3;stroke-width:1.25077"
           id="path25"
           cx="219.98119"
           cy="196.99808"
           r="18.479986" /><circle
           style="fill:#b3b3b3;stroke:#b3b3b3;stroke-width:1.25077"
           id="path25-9"
           cx="458.16409"
           cy="206.1998"
           r="18.479986" /></g></g><path
       d="M 28.768567,16.430199 V 5.1300961 h 1.201647 q 0.231086,0 0.358183,0.1039887 0.138652,0.092434 0.16176,0.311966 l 0.173315,1.1554297 q 0.32352,-0.3812918 0.670149,-0.6932578 0.358183,-0.3235203 0.762584,-0.5546062 0.4044,-0.2426403 0.866572,-0.3697375 0.462172,-0.1270973 0.982115,-0.1270973 1.166984,0 1.894905,0.6354863 0.739475,0.6354864 1.051441,1.710036 0.24264,-0.623932 0.635486,-1.0629953 0.404401,-0.4390633 0.889681,-0.7279208 0.485281,-0.2888574 1.039887,-0.4159546 0.554606,-0.1386516 1.132321,-0.1386516 1.848688,0 2.853911,1.1092125 1.016779,1.1092125 1.016779,3.1658774 V 16.430199 H 42.425746 V 9.2318716 q 0,-1.3171899 -0.600823,-1.9873391 -0.600824,-0.6817035 -1.72159,-0.6817035 -0.508389,0 -0.959007,0.1733144 -0.450618,0.1617602 -0.797247,0.5083891 -0.335074,0.3350746 -0.543052,0.8319094 -0.196423,0.4968348 -0.196423,1.1554297 V 16.430199 H 35.574048 V 9.2318716 q 0,-1.3518528 -0.56616,-2.0104477 -0.554607,-0.6585949 -1.640711,-0.6585949 -0.739475,0 -1.386515,0.3928461 -0.647041,0.3812918 -1.178539,1.0629953 v 8.4115286 z m 26.182037,0 q -0.300411,0 -0.462171,-0.09244 -0.161761,-0.09243 -0.219532,-0.381292 l -0.254195,-1.051441 q -0.439063,0.404401 -0.866572,0.727921 -0.415955,0.311966 -0.878126,0.531498 -0.462172,0.219531 -0.99367,0.32352 -0.531498,0.115543 -1.166984,0.115543 -0.658595,0 -1.23631,-0.173314 -0.56616,-0.184869 -1.005224,-0.554607 -0.427509,-0.381291 -0.681703,-0.935898 -0.24264,-0.56616 -0.24264,-1.328744 0,-0.670149 0.358183,-1.282527 0.369737,-0.623932 1.190092,-1.109212 0.820355,-0.485281 2.137545,-0.785693 1.31719,-0.311966 3.235204,-0.358183 V 9.208763 q 0,-1.3171899 -0.566161,-1.9757848 -0.554606,-0.6701492 -1.629156,-0.6701492 -0.716366,0 -1.213201,0.1848687 -0.485281,0.1848688 -0.843464,0.4044004 -0.358183,0.2195317 -0.623932,0.4044004 -0.254194,0.1848688 -0.519943,0.1848688 -0.207978,0 -0.358183,-0.1039887 Q 47.960255,7.5333899 47.86782,7.3716298 L 47.498083,6.7245891 q 0.935898,-0.9012351 2.010448,-1.3402984 1.086103,-0.4506176 2.403293,-0.4506176 0.947453,0 1.686928,0.311966 0.739475,0.3004117 1.236309,0.8665723 0.496835,0.5661606 0.75103,1.3518528 0.265749,0.7856922 0.265749,1.7446988 v 7.221436 z m -4.228872,-1.247864 q 0.508389,0 0.935898,-0.103989 0.427509,-0.103989 0.808801,-0.288858 0.381291,-0.196423 0.716366,-0.473726 0.346629,-0.288857 0.681704,-0.635486 v -2.333968 q -1.351853,0.05777 -2.299306,0.231086 -0.947452,0.16176 -1.548275,0.439063 -0.58927,0.277303 -0.855018,0.658595 -0.265749,0.369738 -0.265749,0.83191 0,0.439063 0.138651,0.762583 0.150206,0.311966 0.392846,0.519943 0.242641,0.196424 0.577715,0.300412 0.335075,0.09244 0.716367,0.09244 z m 11.207667,1.421178 q -1.305636,0 -2.022002,-0.751029 -0.704813,-0.751029 -0.704813,-2.149099 V 6.8170235 h -1.294081 q -0.184869,0 -0.311966,-0.115543 Q 57.480994,6.5859376 57.480994,6.3664059 V 5.5576051 L 59.27191,5.3265192 59.745636,1.8486758 q 0.02311,-0.1733145 0.138652,-0.2773031 0.127097,-0.1039887 0.32352,-0.1039887 h 1.028333 v 3.8706895 h 5.08389 L 66.793758,1.8486758 Q 66.816866,1.6753613 66.932409,1.5713727 67.059506,1.467384 67.244375,1.467384 h 1.039887 v 3.8706895 h 3.131214 v 1.47895 h -3.131214 v 6.7477095 q 0,0.693258 0.32352,1.039887 0.323521,0.346629 0.83191,0.346629 0.300411,0 0.519943,-0.08088 0.219532,-0.08088 0.369738,-0.184869 0.16176,-0.103989 0.265748,-0.184869 0.103989,-0.08088 0.196423,-0.08088 0.161761,0 0.277304,0.196423 l 0.612377,0.970561 q -0.519943,0.48528 -1.224755,0.751029 -0.704812,0.265749 -1.467396,0.265749 -1.31719,0 -2.033556,-0.751029 -0.704812,-0.751029 -0.704812,-2.149099 V 6.8170235 h -5.014565 v 6.7477095 q 0,0.693258 0.32352,1.039887 0.32352,0.346629 0.831909,0.346629 0.300412,0 0.50839,-0.08088 0.219531,-0.08088 0.369737,-0.184869 0.16176,-0.103989 0.265749,-0.184869 0.115543,-0.08088 0.207977,-0.08088 0.103989,0 0.16176,0.04622 0.06933,0.04622 0.127098,0.150206 l 0.600823,0.970561 q -0.519943,0.48528 -1.23631,0.751029 -0.704812,0.265749 -1.467395,0.265749 z M 78.024534,4.9567817 q 1.016778,0 1.883351,0.3350746 0.866572,0.3350746 1.502058,0.9821153 0.635486,0.6470406 0.99367,1.5829387 0.358183,0.935898 0.358183,2.1490997 0,0.473726 -0.103989,0.635486 -0.103988,0.150206 -0.381292,0.150206 h -7.55651 q 0.02311,1.062995 0.288858,1.860242 0.265748,0.785692 0.72792,1.305635 0.473726,0.519943 1.120767,0.785692 0.647041,0.254195 1.444287,0.254195 0.739475,0 1.282527,-0.16176 0.543052,-0.173315 0.924344,-0.381292 0.392846,-0.207977 0.658595,-0.369738 0.265749,-0.173314 0.462172,-0.173314 0.127097,0 0.219531,0.05777 0.09243,0.04622 0.161761,0.138652 l 0.577714,0.739475 q -0.381291,0.450618 -0.901235,0.785692 -0.508389,0.32352 -1.097658,0.543052 -0.589269,0.207977 -1.224755,0.311966 -0.623933,0.103989 -1.23631,0.103989 -1.178539,0 -2.172208,-0.392846 -0.99367,-0.392846 -1.72159,-1.15543 -0.716367,-0.774138 -1.120767,-1.894905 -0.404401,-1.132321 -0.404401,-2.599717 0,-1.1785378 0.358184,-2.195316 0.369737,-1.0283324 1.051441,-1.7793617 0.693257,-0.7625836 1.675373,-1.1900926 0.993669,-0.427509 2.229979,-0.427508 z m 0.03466,1.47895 q -1.421179,0 -2.253088,0.8319094 -0.820355,0.8319094 -1.028332,2.2761965 h 6.15844 q 0,-0.6817035 -0.196423,-1.2478641 Q 80.543371,7.7182587 80.173633,7.3138583 79.803896,6.8979036 79.260844,6.6668177 78.729346,6.4357317 78.059197,6.4357317 Z m 7.071231,9.9944673 V 5.1300961 h 1.166984 q 0.323521,0 0.450618,0.1270973 0.138652,0.1270973 0.16176,0.427509 l 0.138652,1.6638188 q 0.519943,-1.1207668 1.282527,-1.7678075 0.762583,-0.6470406 1.837133,-0.6470406 0.358183,0 0.670149,0.08088 0.311966,0.069326 0.566161,0.2426402 l -0.16176,1.5020586 q -0.03466,0.2888575 -0.323521,0.2888575 -0.16176,0 -0.462172,-0.057771 -0.288857,-0.069326 -0.64704,-0.069326 -0.519944,0 -0.924344,0.1617601 -0.392846,0.1502059 -0.716366,0.4621719 -0.311966,0.3004118 -0.554607,0.739475 -0.24264,0.4390633 -0.450617,1.0052239 V 16.430199 Z M 99.307551,7.0018923 q -0.138652,0.2541945 -0.415955,0.2541945 -0.173314,0 -0.381292,-0.1270973 -0.196423,-0.1270972 -0.48528,-0.2657488 -0.277303,-0.1502059 -0.67015,-0.2773031 -0.381291,-0.1270973 -0.912789,-0.1270973 -0.450618,0 -0.808801,0.1270973 -0.358183,0.1270972 -0.612378,0.3466289 -0.254194,0.2195316 -0.392846,0.5199434 -0.138651,0.2888574 -0.138651,0.623932 0,0.4390633 0.231086,0.7279207 0.231086,0.2888574 0.612378,0.4968348 0.381291,0.2079773 0.866572,0.3812918 0.496835,0.1617601 1.005224,0.3350748 0.508389,0.173314 0.993669,0.4044 0.496835,0.231086 0.878127,0.566161 0.381292,0.335074 0.612378,0.820355 0.231085,0.473726 0.231085,1.15543 0,0.785692 -0.265748,1.455841 -0.265749,0.658595 -0.785693,1.143875 -0.508389,0.485281 -1.270972,0.762584 -0.75103,0.277303 -1.733145,0.277303 -1.120767,0 -2.04511,-0.381292 -0.91279,-0.381291 -1.548276,-0.993669 l 0.473726,-0.762584 q 0.09243,-0.150206 0.219532,-0.231086 0.127097,-0.08088 0.32352,-0.08088 0.207977,0 0.415955,0.16176 0.207977,0.150206 0.496834,0.346629 0.300412,0.184869 0.716367,0.346629 0.415955,0.150206 1.039887,0.150206 0.531497,0 0.912789,-0.150206 0.392846,-0.150206 0.647041,-0.392846 0.254194,-0.254195 0.381291,-0.589269 0.127098,-0.335075 0.127098,-0.704812 0,-0.462172 -0.242641,-0.762584 -0.231085,-0.311966 -0.612377,-0.519943 -0.381292,-0.219532 -0.878127,-0.381292 -0.48528,-0.16176 -1.005224,-0.335075 -0.508389,-0.184868 -1.005224,-0.4044 -0.48528,-0.231086 -0.866572,-0.577715 -0.381292,-0.3581831 -0.623932,-0.8665722 -0.231086,-0.508389 -0.231086,-1.2363097 0,-0.658595 0.254195,-1.2478641 0.254194,-0.6008235 0.739475,-1.0514411 0.48528,-0.4506175 1.201647,-0.7163664 0.716366,-0.2657488 1.64071,-0.2657488 1.051441,0 1.906459,0.3466289 0.855018,0.3466289 1.455841,0.970561 z m 3.073439,9.4283067 V -1.1749566e-5 h 2.03356 V 6.7361434 q 0.69326,-0.8203551 1.58294,-1.2940812 0.88968,-0.4852805 2.04511,-0.4852805 0.98211,0 1.7678,0.3812918 0.7857,0.3812918 1.3403,1.0976582 0.55461,0.7163664 0.84347,1.7446989 0.30041,1.0167781 0.30041,2.3108594 0,1.374961 -0.33508,2.495728 -0.33507,1.120767 -0.959,1.929568 -0.62394,0.797246 -1.51362,1.23631 -0.88968,0.439063 -1.99889,0.439063 -1.10921,0 -1.86024,-0.415955 -0.73948,-0.427509 -1.31719,-1.178538 l -0.11554,1.005224 q -0.0462,0.427509 -0.49684,0.427509 z m 4.9799,-9.86737 q -0.93589,0 -1.65226,0.4390633 -0.70481,0.4390633 -1.29408,1.2478641 v 5.4536286 q 0.5315,0.72792 1.16698,1.028332 0.63549,0.288857 1.39807,0.288857 1.55983,0 2.39174,-1.120766 0.83191,-1.120767 0.83191,-3.339192 0,-2.0566651 -0.73947,-3.0272261 Q 108.7243,6.562829 107.36089,6.562829 Z m 11.97026,-1.6060473 q 1.01678,0 1.88335,0.3350746 0.86657,0.3350746 1.50206,0.9821153 0.63548,0.6470406 0.99367,1.5829387 0.35818,0.935898 0.35818,2.1490997 0,0.473726 -0.10399,0.635486 -0.10399,0.150206 -0.38129,0.150206 h -7.55651 q 0.0231,1.062995 0.28886,1.860242 0.26575,0.785692 0.72792,1.305635 0.47372,0.519943 1.12076,0.785692 0.64704,0.254195 1.44429,0.254195 0.73948,0 1.28253,-0.16176 0.54305,-0.173315 0.92434,-0.381292 0.39285,-0.207977 0.6586,-0.369738 0.26575,-0.173314 0.46217,-0.173314 0.1271,0 0.21953,0.05777 0.0924,0.04622 0.16176,0.138652 l 0.57772,0.739475 q -0.3813,0.450618 -0.90124,0.785692 -0.50839,0.32352 -1.09766,0.543052 -0.58927,0.207977 -1.22475,0.311966 -0.62394,0.103989 -1.23631,0.103989 -1.17854,0 -2.17221,-0.392846 -0.99367,-0.392846 -1.72159,-1.15543 -0.71637,-0.774138 -1.12077,-1.894905 -0.4044,-1.132321 -0.4044,-2.599717 0,-1.1785378 0.35818,-2.195316 0.36974,-1.0283324 1.05145,-1.7793617 0.69325,-0.7625836 1.67537,-1.1900926 0.99367,-0.427509 2.22998,-0.427508 z m 0.0347,1.47895 q -1.42118,0 -2.25309,0.8319094 -0.82035,0.8319094 -1.02833,2.2761965 h 6.15844 q 0,-0.6817035 -0.19642,-1.2478641 -0.19643,-0.5777148 -0.56616,-0.9821152 -0.36974,-0.4159547 -0.91279,-0.6470406 -0.5315,-0.231086 -1.20165,-0.231086 z m 14.5353,9.9944673 q -0.30041,0 -0.46217,-0.09244 -0.16176,-0.09243 -0.21953,-0.381292 l -0.25419,-1.051441 q -0.43907,0.404401 -0.86658,0.727921 -0.41595,0.311966 -0.87812,0.531498 -0.46217,0.219531 -0.99367,0.32352 -0.5315,0.115543 -1.16699,0.115543 -0.65859,0 -1.23631,-0.173314 -0.56616,-0.184869 -1.00522,-0.554607 -0.42751,-0.381291 -0.6817,-0.935898 -0.24264,-0.56616 -0.24264,-1.328744 0,-0.670149 0.35818,-1.282527 0.36974,-0.623932 1.19009,-1.109212 0.82036,-0.485281 2.13755,-0.785693 1.31719,-0.311966 3.2352,-0.358183 V 9.208763 q 0,-1.3171899 -0.56616,-1.9757848 -0.55461,-0.6701492 -1.62916,-0.6701492 -0.71636,0 -1.2132,0.1848687 -0.48528,0.1848688 -0.84346,0.4044004 -0.35818,0.2195317 -0.62393,0.4044004 -0.2542,0.1848688 -0.51995,0.1848688 -0.20797,0 -0.35818,-0.1039887 -0.15021,-0.1039887 -0.24264,-0.2657488 l -0.36974,-0.6470407 q 0.9359,-0.9012351 2.01045,-1.3402984 1.0861,-0.4506176 2.40329,-0.4506176 0.94746,0 1.68693,0.311966 0.73948,0.3004117 1.23631,0.8665723 0.49684,0.5661606 0.75103,1.3518528 0.26575,0.7856922 0.26575,1.7446988 v 7.221436 z m -4.22887,-1.247864 q 0.50839,0 0.9359,-0.103989 0.42751,-0.103989 0.8088,-0.288858 0.38129,-0.196423 0.71637,-0.473726 0.34663,-0.288857 0.6817,-0.635486 v -2.333968 q -1.35185,0.05777 -2.2993,0.231086 -0.94746,0.16176 -1.54828,0.439063 -0.58927,0.277303 -0.85502,0.658595 -0.26575,0.369738 -0.26575,0.83191 0,0.439063 0.13865,0.762583 0.15021,0.311966 0.39285,0.519943 0.24264,0.196424 0.57772,0.300412 0.33507,0.09244 0.71636,0.09244 z m 8.09956,1.247864 V 5.1300961 h 1.16699 q 0.32352,0 0.45061,0.1270973 0.13865,0.1270973 0.16176,0.427509 l 0.13865,1.6638188 q 0.51995,-1.1207668 1.28253,-1.7678075 0.76259,-0.6470406 1.83713,-0.6470406 0.35819,0 0.67015,0.08088 0.31197,0.069326 0.56616,0.2426402 l -0.16176,1.5020586 q -0.0347,0.2888575 -0.32352,0.2888575 -0.16176,0 -0.46217,-0.057771 -0.28886,-0.069326 -0.64704,-0.069326 -0.51994,0 -0.92434,0.1617601 -0.39285,0.1502059 -0.71637,0.4621719 -0.31196,0.3004118 -0.5546,0.739475 -0.24265,0.4390633 -0.45062,1.0052239 V 16.430199 Z M 148.24,-1.1749566e-5 V 16.430199 h -2.03356 V -1.1749566e-5 Z M 154.66419,19.757836 q -0.0924,0.231086 -0.2542,0.358183 -0.1502,0.127098 -0.45062,0.127098 h -1.51361 l 1.94112,-4.483068 -4.3213,-10.6299529 h 1.75625 q 0.26575,0 0.4044,0.1270973 0.13865,0.1270973 0.20798,0.2888574 l 2.63438,7.0712302 q 0.0924,0.24264 0.17331,0.48528 0.0924,0.24264 0.15021,0.485281 0.0693,-0.254195 0.1502,-0.496835 0.0924,-0.254195 0.18487,-0.496835 l 2.5535,-7.0481212 q 0.0693,-0.1733144 0.23109,-0.2888574 0.16176,-0.1270973 0.35818,-0.1270973 h 1.6176 z"
       id="text2"
       style="font-size:23.6632px;font-family:Carlito;-inkscape-font-specification:'Carlito, Normal';fill:#b3b3b3;stroke-width:1.97195"
       aria-label="mattersbearly" /></g></svg>
